<?xml version="1.0" standalone="no"?>
<!DOCTYPE svg PUBLIC "-//W3C//DTD SVG 20010904//EN"
 "http://www.w3.org/TR/2001/REC-SVG-20010904/DTD/svg10.dtd">
<svg version="1.0" xmlns="http://www.w3.org/2000/svg"
 width="180.000000pt" height="50.000000pt" viewBox="0 0 180.000000 50.000000"
 preserveAspectRatio="xMidYMid meet">
<metadata>
Created by potrace 1.16, written by Peter Selinger 2001-2019
</metadata>
<g transform="translate(0.000000,50.000000) scale(0.100000,-0.100000)"
fill="#000000" stroke="none">
<path d="M0 460 l0 -40 43 6 c83 11 183 35 222 54 l40 18 -152 1 -153 1 0 -40z"/>
<path d="M1120 310 l0 -110 25 0 c22 0 24 4 27 58 2 43 7 57 18 57 11 0 16
-14 18 -57 3 -54 5 -58 27 -58 24 0 25 3 25 64 0 75 -16 100 -62 94 -26 -4
-28 -2 -28 29 0 29 -3 33 -25 33 l-25 0 0 -110z"/>
<path d="M648 353 c-10 -2 -18 -13 -18 -24 0 -17 5 -19 34 -14 20 4 36 2 40
-4 5 -7 -3 -11 -19 -11 -42 0 -65 -17 -65 -48 0 -41 17 -52 83 -52 l59 0 -7
68 c-9 86 -32 105 -107 85z"/>
<path d="M983 353 l-33 -4 0 -75 c0 -72 1 -74 25 -74 22 0 24 4 27 58 2 43 7
57 18 57 11 0 16 -14 18 -57 3 -54 5 -58 27 -58 24 0 25 3 25 64 0 45 -5 69
-16 80 -15 16 -27 17 -91 9z"/>
<path d="M1306 339 c-21 -16 -26 -29 -26 -63 0 -54 22 -76 77 -76 62 0 96 53
72 112 -20 49 -78 62 -123 27z"/>
<path d="M1572 337 c-26 -28 -29 -82 -6 -115 12 -18 25 -22 65 -22 45 0 49 2
49 25 0 22 -3 24 -25 15 -26 -10 -55 -4 -55 11 0 5 20 9 45 9 43 0 45 1 45 30
0 63 -75 93 -118 47z"/>
<path d="M780 287 c0 -36 5 -68 12 -75 7 -7 38 -12 70 -12 l58 0 0 75 c0 73
-1 75 -25 75 -23 0 -25 -3 -25 -50 0 -37 -4 -52 -16 -57 -22 -8 -34 14 -34 65
0 35 -3 42 -20 42 -18 0 -20 -7 -20 -63z"/>
</g>
</svg>
