<?xml version="1.0" encoding="utf-8"?>
<!-- Generator: Adobe Illustrator 16.0.3, SVG Export Plug-In . SVG Version: 6.00 Build 0)  -->
<!DOCTYPE svg PUBLIC "-//W3C//DTD SVG 1.1//EN" "http://www.w3.org/Graphics/SVG/1.1/DTD/svg11.dtd">
<svg version="1.1" id="Ebene_1" xmlns="http://www.w3.org/2000/svg" xmlns:xlink="http://www.w3.org/1999/xlink" x="0px" y="0px"
	 width="258px" height="72px" viewBox="0 0 258 72" style="enable-background:new 0 0 258 72;" xml:space="preserve">
<style type="text/css">
<![CDATA[
	.st0{fill:#179C7D;}
	.st1{fill:#FFFFFF;}
]]>
</style>
<g>
	<g>
		<path class="st0" d="M0,41.697c9.875-5.082,24.341-13.3,41.509-25.316v-4.033C26.399,22.233,11.033,30.171,0,35.424V41.697z"/>
		<path class="st0" d="M0,29.654c10.996-4.479,26.362-11.4,41.509-20.408V7.255C27.273,14.319,12.482,18.738,0,21.495V29.654z"/>
		<path class="st0" d="M41.509,41.719V21.433C32.059,29.399,22.7,36.298,14.84,41.719H41.509z"/>
		<path class="st0" d="M9.532,41.719c7.463-4.432,16.525-10.216,25.55-16.975c2.106-1.579,4.255-3.204,6.427-4.884v-2.512
			C28.152,27.36,14.52,35.706,3.869,41.719H9.532z"/>
		<path class="st0" d="M0,18.543c12.143-2.135,26.995-5.975,41.509-12.875V3.407C26.883,9.973,12.242,12.757,0,13.749V18.543z"/>
		<path class="st0" d="M0,0v11.62c0.908-0.056,1.832-0.121,2.776-0.193c10.094-0.778,23.868-2.56,38.733-8.987V0H0z"/>
		<g>
			<g>
				<path class="st1" d="M0,11.62v2.128c12.242-0.992,26.883-3.776,41.509-10.342V2.44C26.644,8.867,12.87,10.649,2.776,11.427
					C1.832,11.5,0.908,11.564,0,11.62z"/>
			</g>
		</g>
		<g>
			<g>
				<path class="st1" d="M0,21.495c12.482-2.757,27.273-7.176,41.509-14.24V5.668C26.995,12.568,12.143,16.408,0,18.543V21.495z"/>
			</g>
		</g>
		<g>
			<g>
				<path class="st1" d="M0,35.424c11.033-5.253,26.399-13.19,41.509-23.076V9.247C26.362,18.254,10.996,25.175,0,29.654V35.424z"/>
			</g>
		</g>
		<g>
			<g>
				<path class="st1" d="M9.532,41.719h5.308c7.86-5.421,17.219-12.319,26.669-20.286V19.86c-2.172,1.68-4.321,3.305-6.427,4.884
					C26.057,31.503,16.995,37.287,9.532,41.719z"/>
			</g>
		</g>
		<g>
			<g>
				<path class="st1" d="M0,41.719h3.869c10.651-6.013,24.283-14.359,37.64-24.371v-0.967C24.341,28.397,9.875,36.615,0,41.697
					V41.719z"/>
			</g>
		</g>
	</g>
	<g>
		<path d="M243.927,41.697h5.338v-7.532c0-2.946,0-8.369,4.341-8.369c0.958,0,1.916,0.158,2.395,0.438v-5.377
			c-0.563-0.16-1.118-0.16-1.637-0.16c-3.186,0-5.378,3.23-5.616,5.137h-0.082v-4.657h-4.738V41.697z M238.586,36.2
			c-1.993,1.114-4.222,2.072-6.815,2.072c-3.301,0-5.614-1.873-5.856-5.185h14.184c0-7.172-2.15-12.392-9.763-12.392
			c-6.371,0-9.519,4.9-9.519,10.838c0,6.738,3.942,10.643,10.718,10.643c2.871,0,5.097-0.558,7.052-1.635V36.2z M225.914,29.422
			c0.242-2.749,1.752-4.822,4.741-4.822c2.992,0,4.188,2.232,4.345,4.822H225.914z M208.859,41.697h5.338V25.078h4.661v-3.902
			h-4.661v-2.552c0-1.594,0.562-3.149,2.357-3.149c1.152,0,1.832,0.44,2.304,0.72l0.441-4.425c-1.034-0.236-2.549-0.438-3.904-0.438
			c-4.226,0-6.536,2.869-6.536,6.973v2.872h-3.942v3.902h3.942V41.697z M187.622,30.937c0-3.068,1.672-6.097,5.143-6.097
			c3.506,0,5.178,2.95,5.178,6.097c0,3.428-1.073,7.093-5.178,7.093C188.695,38.029,187.622,34.322,187.622,30.937 M182.04,31.578
			c0,5.892,3.95,10.599,10.725,10.599c6.812,0,10.756-4.707,10.756-10.599c0-6.778-4.658-10.881-10.756-10.881
			C186.707,20.696,182.04,24.8,182.04,31.578 M159.808,41.697h5.339V31.652c0-2.626,0.839-6.813,4.705-6.813
			c3.427,0,3.465,3.388,3.465,5.898v10.96h5.335V28.746c0-4.624-2.11-8.049-6.968-8.049c-2.79,0-5.102,1.276-6.451,3.268h-0.086
			V11.811h-5.339V41.697z M135.465,41.697h5.336V31.652c0-2.626,0.839-6.813,4.703-6.813c3.424,0,3.465,3.388,3.465,5.898v10.96
			h5.343V28.746c0-4.624-2.113-8.049-6.974-8.049c-2.79,0-5.063,0.917-6.734,3.268h-0.084v-2.788h-5.055V41.697z M129.963,21.176
			h-5.341v10.043c0,2.627-0.837,6.811-4.703,6.811c-3.427,0-3.467-3.388-3.467-5.897V21.176h-5.338v12.949
			c0,4.622,2.112,8.052,6.973,8.052c2.788,0,5.102-1.275,6.734-3.27h0.081v2.79h5.061V21.176z M93.54,35.76
			c0-3.149,3.545-3.547,5.938-3.547h2.313c0,1.595-0.24,3.066-1.117,4.224c-0.836,1.112-2.11,1.836-3.745,1.836
			C95.015,38.272,93.54,37.511,93.54,35.76 M90.832,26.833c1.794-1.357,4.063-2.232,6.336-2.232c3.146,0,4.623,1.116,4.623,4.425
			h-2.949c-2.231,0-4.861,0.195-6.893,1.193c-2.033,1-3.505,2.79-3.505,5.863c0,3.9,3.544,6.095,7.17,6.095
			c2.431,0,5.102-1.275,6.336-3.545h0.081c0.042,0.632,0.042,1.985,0.239,3.065h4.701c-0.121-1.597-0.198-3.03-0.24-4.585
			c-0.04-1.512-0.079-3.068-0.079-5.141v-2.63c0-6.056-2.59-8.645-8.845-8.645c-2.272,0-5.06,0.6-7.134,1.556L90.832,26.833z
			 M74.773,41.697h5.34v-7.532c0-2.946,0-8.369,4.342-8.369c0.956,0,1.913,0.158,2.392,0.438v-5.377
			c-0.558-0.16-1.116-0.16-1.635-0.16c-3.187,0-5.38,3.23-5.618,5.137h-0.079v-4.657h-4.742V41.697z M55.488,41.697h5.579V29.503
			h9.404V25.12h-9.404v-6.854h9.882v-4.382H55.488V41.697z"/>
	</g>
	<g>
		<path d="M210.389,55.893h2.784v13.881h-2.784V55.893z"/>
		<path d="M227.291,58.577c-1.073-0.497-2.465-0.736-3.579-0.736c-3.242,0-5.031,2.188-5.031,5.031c0,2.824,1.75,4.952,4.714,4.952
			c0.755,0,1.352-0.08,1.828-0.199v-3.619h-2.942v-2.188h5.607v7.478c-1.471,0.397-3.002,0.716-4.493,0.716
			c-4.496,0-7.618-2.246-7.618-6.94c0-4.753,2.904-7.418,7.618-7.418c1.609,0,2.884,0.219,4.076,0.577L227.291,58.577z"/>
		<path d="M241.21,69.574c-1.015,0.238-2.108,0.438-3.163,0.438c-4.493,0-7.615-2.246-7.615-6.94c0-4.753,2.902-7.418,7.615-7.418
			c0.915,0,2.129,0.18,3.144,0.577l-0.199,2.347c-1.054-0.597-2.008-0.736-3.003-0.736c-2.864,0-4.654,2.188-4.654,5.031
			c0,2.824,1.751,4.952,4.713,4.952c1.095,0,2.388-0.238,3.044-0.577L241.21,69.574z"/>
		<path d="M242.938,55.893h2.982l3.56,10.897h0.04l3.52-10.897h2.765l-4.673,13.881h-3.421L242.938,55.893z"/>
	</g>
</g>
</svg>
